<svg width="220" height="41" viewBox="0 0 220 41" fill="none" xmlns="http://www.w3.org/2000/svg">
<path d="M12.8023 14.5385C14.266 15.9333 14.9979 17.6769 14.9979 19.7692C14.9979 21.8615 14.266 23.6154 12.8023 25.0308C11.3386 26.4256 9.50379 27.1231 7.29792 27.1231H4.48389V34.2615H0V12.4154H7.29792C9.50379 12.4154 11.3386 13.1231 12.8023 14.5385ZM9.70995 22.0462C10.3284 21.4513 10.6377 20.6923 10.6377 19.7692C10.6377 18.8462 10.3284 18.0872 9.70995 17.4923C9.09148 16.8974 8.26686 16.6 7.23608 16.6H4.48389V22.9385H7.23608C8.26686 22.9385 9.09148 22.641 9.70995 22.0462Z" fill="#474747"/>
<path d="M23.2848 34.6C21.4501 34.6 20.0173 33.9846 18.9865 32.7538C17.9763 31.5231 17.4712 29.8718 17.4712 27.8V18.8769H21.7077V27.0923C21.7077 29.5333 22.5839 30.7538 24.3362 30.7538C25.3258 30.7538 26.0989 30.3846 26.6555 29.6462C27.2327 28.9077 27.5214 27.8205 27.5214 26.3846V18.8769H31.7579V34.2615H27.5214V32.5077C26.573 33.9026 25.1609 34.6 23.2848 34.6Z" fill="#474747"/>
<path d="M44.5568 34.6C43.5672 34.6 42.6704 34.3949 41.8664 33.9846C41.0624 33.5744 40.4646 33.0923 40.0729 32.5385V34.2615H35.8364V11.1846H40.0729V20.6C40.4646 20.0462 41.0624 19.5641 41.8664 19.1538C42.6704 18.7436 43.5672 18.5385 44.5568 18.5385C46.5977 18.5385 48.3191 19.3282 49.721 20.9077C51.1228 22.4872 51.8238 24.3744 51.8238 26.5692C51.8238 28.7641 51.1228 30.6513 49.721 32.2308C48.3191 33.8103 46.5977 34.6 44.5568 34.6ZM40.7841 29.5846C41.5057 30.3641 42.454 30.7538 43.6291 30.7538C44.8041 30.7538 45.7422 30.3641 46.4431 29.5846C47.1646 28.8051 47.5254 27.8 47.5254 26.5692C47.5254 25.3385 47.1646 24.3333 46.4431 23.5538C45.7422 22.7744 44.8041 22.3846 43.6291 22.3846C42.454 22.3846 41.5057 22.7744 40.7841 23.5538C40.0832 24.3333 39.7327 25.3385 39.7327 26.5692C39.7327 27.8 40.0832 28.8051 40.7841 29.5846Z" fill="#474747"/>
<path d="M54.9219 34.2615V11.1846H59.1584V34.2615H54.9219Z" fill="#474747"/>
<path d="M65.3293 16.3538C64.6078 16.3538 63.979 16.0974 63.443 15.5846C62.907 15.0513 62.639 14.4154 62.639 13.6769C62.639 12.9385 62.907 12.3128 63.443 11.8C63.979 11.2667 64.6078 11 65.3293 11C66.0921 11 66.7312 11.2667 67.2466 11.8C67.7826 12.3128 68.0506 12.9385 68.0506 13.6769C68.0506 14.4154 67.7826 15.0513 67.2466 15.5846C66.7312 16.0974 66.0921 16.3538 65.3293 16.3538ZM63.2265 34.2615V18.8769H67.463V34.2615H63.2265Z" fill="#474747"/>
<path d="M77.4994 34.6C75.5203 34.6 73.8813 34.1077 72.5825 33.1231C71.2838 32.1385 70.5931 30.8872 70.5107 29.3692H74.9327C75.0152 30.0256 75.3038 30.5282 75.7986 30.8769C76.2934 31.2051 76.9015 31.3692 77.6231 31.3692C78.9631 31.3692 79.6331 30.959 79.6331 30.1385C79.6331 29.7282 79.4785 29.4205 79.1692 29.2154C78.8806 28.9897 78.3858 28.7846 77.6849 28.6L74.7781 27.8615C73.4587 27.5128 72.4692 26.9282 71.8095 26.1077C71.1704 25.2667 70.8508 24.2615 70.8508 23.0923C70.8508 21.759 71.4075 20.6718 72.5207 19.8308C73.6546 18.9692 75.1698 18.5385 77.0664 18.5385C78.7982 18.5385 80.2412 18.9795 81.3957 19.8615C82.5502 20.7231 83.1893 21.9026 83.313 23.4H79.0455C78.86 22.3538 78.1797 21.8308 77.0046 21.8308C76.448 21.8308 76.0047 21.9333 75.6749 22.1385C75.345 22.3436 75.1801 22.6308 75.1801 23C75.1801 23.6769 75.7677 24.1487 76.9427 24.4154L79.664 25.1538C81.1689 25.5231 82.2616 26.1077 82.9419 26.9077C83.6222 27.6872 83.9624 28.6923 83.9624 29.9231C83.9624 31.3385 83.3542 32.4769 82.1379 33.3385C80.9422 34.1795 79.396 34.6 77.4994 34.6Z" fill="#474747"/>
<path d="M91.2596 34.2615H87.023V11.1846H91.2596V20.6308C92.2079 19.2359 93.6819 18.5385 95.6816 18.5385C97.537 18.5385 98.9904 19.1538 100.042 20.3846C101.114 21.5949 101.65 23.2154 101.65 25.2462V34.2615H97.4133V25.9538C97.4133 24.8256 97.1762 23.9538 96.7021 23.3385C96.2279 22.7026 95.5579 22.3846 94.6921 22.3846C93.6613 22.3846 92.8263 22.7538 92.1873 23.4923C91.5688 24.2308 91.2596 25.3179 91.2596 26.7538V34.2615Z" fill="#474747"/>
<path d="M107.638 16.3538C106.916 16.3538 106.287 16.0974 105.751 15.5846C105.215 15.0513 104.947 14.4154 104.947 13.6769C104.947 12.9385 105.215 12.3128 105.751 11.8C106.287 11.2667 106.916 11 107.638 11C108.4 11 109.039 11.2667 109.555 11.8C110.091 12.3128 110.359 12.9385 110.359 13.6769C110.359 14.4154 110.091 15.0513 109.555 15.5846C109.039 16.0974 108.4 16.3538 107.638 16.3538ZM105.535 34.2615V18.8769H109.771V34.2615H105.535Z" fill="#474747"/>
<path d="M113.839 34.2615V18.8769H118.076V20.6308C119.024 19.2359 120.498 18.5385 122.498 18.5385C124.353 18.5385 125.807 19.1538 126.858 20.3846C127.93 21.5949 128.466 23.2154 128.466 25.2462V34.2615H124.23V25.9538C124.23 24.8256 123.993 23.9538 123.518 23.3385C123.044 22.7026 122.374 22.3846 121.508 22.3846C120.478 22.3846 119.643 22.7538 119.004 23.4923C118.385 24.2308 118.076 25.3179 118.076 26.7538V34.2615H113.839Z" fill="#474747"/>
<path d="M139.556 41C137.412 41 135.66 40.4564 134.299 39.3692C132.939 38.2821 132.176 36.8974 132.011 35.2154H136.155C136.691 36.7333 137.856 37.4923 139.649 37.4923C140.639 37.4923 141.463 37.1744 142.123 36.5385C142.803 35.9026 143.143 35.0103 143.143 33.8615V32.0462C142.711 32.641 142.092 33.1333 141.288 33.5231C140.484 33.8923 139.608 34.0769 138.66 34.0769C136.639 34.0769 134.918 33.3282 133.495 31.8308C132.073 30.3128 131.362 28.4769 131.362 26.3231C131.362 24.1487 132.073 22.3128 133.495 20.8154C134.918 19.2974 136.639 18.5385 138.66 18.5385C139.629 18.5385 140.505 18.7333 141.288 19.1231C142.092 19.4923 142.711 19.9846 143.143 20.6V18.8769H147.38V33.3077C147.38 35.9128 146.628 37.841 145.123 39.0923C143.638 40.3641 141.783 41 139.556 41ZM136.773 29.1538C137.536 29.8923 138.464 30.2615 139.556 30.2615C140.649 30.2615 141.577 29.8923 142.339 29.1538C143.102 28.4154 143.484 27.4718 143.484 26.3231C143.484 25.1744 143.102 24.2308 142.339 23.4923C141.577 22.7538 140.649 22.3846 139.556 22.3846C138.464 22.3846 137.536 22.7538 136.773 23.4923C136.01 24.2308 135.629 25.1744 135.629 26.3231C135.629 27.4718 136.01 28.4154 136.773 29.1538Z" fill="#474747"/>
<path d="M167.187 34.6C164.857 34.6 162.919 33.8308 161.373 32.2923C159.827 30.7333 159.054 28.8256 159.054 26.5692C159.054 24.3128 159.827 22.4154 161.373 20.8769C162.919 19.3179 164.857 18.5385 167.187 18.5385C169.248 18.5385 170.97 19.1128 172.351 20.2615C173.753 21.4103 174.67 22.9077 175.103 24.7538H170.712C170.032 23.1538 168.857 22.3538 167.187 22.3538C166.053 22.3538 165.125 22.7436 164.404 23.5231C163.682 24.2821 163.321 25.2974 163.321 26.5692C163.321 27.841 163.682 28.8667 164.404 29.6462C165.125 30.4051 166.053 30.7846 167.187 30.7846C168.857 30.7846 170.032 29.9846 170.712 28.3846H175.103C174.67 30.2308 173.753 31.7282 172.351 32.8769C170.97 34.0256 169.248 34.6 167.187 34.6Z" fill="#474747"/>
<path d="M190.845 32.2923C189.258 33.8308 187.341 34.6 185.094 34.6C182.847 34.6 180.929 33.8308 179.342 32.2923C177.755 30.7333 176.961 28.8256 176.961 26.5692C176.961 24.3333 177.755 22.4359 179.342 20.8769C180.929 19.3179 182.847 18.5385 185.094 18.5385C187.341 18.5385 189.258 19.3179 190.845 20.8769C192.433 22.4359 193.227 24.3333 193.227 26.5692C193.227 28.8256 192.433 30.7333 190.845 32.2923ZM185.094 30.6615C186.186 30.6615 187.093 30.2821 187.815 29.5231C188.557 28.7436 188.928 27.759 188.928 26.5692C188.928 25.3795 188.557 24.4051 187.815 23.6462C187.093 22.8667 186.186 22.4769 185.094 22.4769C183.981 22.4769 183.053 22.8667 182.311 23.6462C181.589 24.4051 181.228 25.3795 181.228 26.5692C181.228 27.759 181.589 28.7436 182.311 29.5231C183.053 30.2821 183.981 30.6615 185.094 30.6615Z" fill="#474747"/>
<path d="M215.763 34.2615V26.0462C215.763 23.6051 214.959 22.3846 213.351 22.3846C212.424 22.3846 211.682 22.7333 211.125 23.4308C210.589 24.1282 210.3 25.1641 210.259 26.5385V34.2615H206.023V26.0462C206.023 23.6051 205.219 22.3846 203.611 22.3846C202.662 22.3846 201.91 22.7538 201.353 23.4923C200.797 24.2308 200.518 25.3179 200.518 26.7538V34.2615H196.282V18.8769H200.518V20.6308C201.487 19.2359 202.858 18.5385 204.631 18.5385C206.796 18.5385 208.393 19.4821 209.424 21.3692C209.878 20.4872 210.558 19.8 211.465 19.3077C212.372 18.7949 213.29 18.5385 214.217 18.5385C216.052 18.5385 217.475 19.1436 218.485 20.3538C219.495 21.5641 220 23.2256 220 25.3385V34.2615H215.763Z" fill="#474747"/>
<path d="M153.5 34C152.8 34 152.208 33.7583 151.725 33.275C151.242 32.7917 151 32.2 151 31.5C151 30.8 151.242 30.2083 151.725 29.725C152.208 29.2417 152.8 29 153.5 29C154.183 29 154.767 29.25 155.25 29.75C155.75 30.2333 156 30.8167 156 31.5C156 32.1833 155.75 32.775 155.25 33.275C154.767 33.7583 154.183 34 153.5 34Z" fill="#474747"/>
</svg>
