<svg width="190" height="31" viewBox="0 0 190 31" fill="none" xmlns="http://www.w3.org/2000/svg">
<path fill-rule="evenodd" clip-rule="evenodd" d="M0 0V22.8923H14.9436V18.8544H4.32411V12.9723H13.0359V8.93437H4.32411V4.03795H14.9436V0H0ZM85.8897 0V22.8923H93.2979C93.4781 22.8923 93.849 22.887 94.4108 22.8764C94.9725 22.8658 95.513 22.8287 96.0323 22.7652C97.8764 22.5426 99.4397 21.9014 100.722 20.8416C102.004 19.7817 102.979 18.4358 103.647 16.8036C104.315 15.1715 104.649 13.3857 104.649 11.4462C104.649 9.50668 104.315 7.72086 103.647 6.08873C102.979 4.45659 102.004 3.1106 100.722 2.05077C99.4397 0.990942 97.8764 0.349744 96.0323 0.12718C95.513 0.0635893 94.9725 0.0264954 94.4108 0.0158979C93.849 0.00529909 93.4781 0 93.2979 0H85.8897ZM93.2979 18.8226H90.2774V4.06975H93.2979C93.5841 4.06975 93.9709 4.07505 94.4584 4.08565C94.946 4.09624 95.3858 4.14394 95.7779 4.22872C96.7424 4.41949 97.5426 4.86992 98.1785 5.58001C98.8144 6.29009 99.286 7.15915 99.5933 8.18719C99.9113 9.21522 100.07 10.3016 100.07 11.4462C100.07 12.5378 99.9166 13.5976 99.6092 14.6257C99.3125 15.6537 98.8461 16.5334 98.2103 17.2646C97.585 17.9959 96.7742 18.4622 95.7779 18.6636C95.3858 18.7378 94.946 18.7855 94.4584 18.8067C93.9709 18.8173 93.5841 18.8226 93.2979 18.8226ZM115.172 23.3692C113.412 23.3692 111.86 22.993 110.514 22.2405C109.178 21.4774 108.129 20.4335 107.366 19.1087C106.613 17.7733 106.237 16.2472 106.237 14.5302C106.237 12.6543 106.608 11.0222 107.35 9.63382C108.092 8.24544 109.115 7.16971 110.418 6.40664C111.722 5.63296 113.222 5.24612 114.917 5.24612C116.719 5.24612 118.25 5.67006 119.512 6.51792C120.773 7.36578 121.705 8.55809 122.31 10.0948C122.914 11.6316 123.126 13.4386 122.945 15.5159H120.863H118.669H110.89C111.025 16.5463 111.345 17.3836 111.849 18.0277C112.549 18.8967 113.571 19.3313 114.917 19.3313C115.765 19.3313 116.491 19.1458 117.095 18.7749C117.699 18.4039 118.16 17.8687 118.478 17.1692L122.802 18.4092C122.156 19.9778 121.133 21.1966 119.734 22.0656C118.346 22.9347 116.825 23.3692 115.172 23.3692ZM117.826 10.1584C118.196 10.6605 118.444 11.3759 118.57 12.3046H111.004C111.172 11.5116 111.454 10.8598 111.849 10.3492C112.549 9.44835 113.635 8.99792 115.108 8.99792C116.369 8.99792 117.275 9.38476 117.826 10.1584ZM129.826 30.5231C130.705 30.841 131.633 31 132.608 31C133.869 31 135.04 30.8304 136.121 30.4913C137.202 30.1627 138.114 29.6593 138.856 28.981C139.608 28.3027 140.122 27.439 140.398 26.3897C140.493 26.0188 140.557 25.6426 140.588 25.261C140.631 24.8901 140.652 24.4926 140.652 24.0687V5.72305H136.868V6.6665C136.77 6.58802 136.669 6.512 136.566 6.43843C135.454 5.64356 134.081 5.24612 132.449 5.24612C130.806 5.24612 129.375 5.63826 128.157 6.42254C126.938 7.20681 125.989 8.28254 125.311 9.64972C124.643 11.0063 124.309 12.559 124.309 14.3077C124.309 16.0246 124.638 17.5667 125.295 18.9338C125.963 20.301 126.89 21.382 128.077 22.1769C129.264 22.9718 130.647 23.3692 132.226 23.3692C133.847 23.3692 135.214 23.0108 136.328 22.2938V24.0051C136.349 24.641 136.185 25.1709 135.835 25.5949C135.496 26.0294 135.04 26.3526 134.468 26.5646C133.896 26.7872 133.286 26.8985 132.64 26.8985C132.036 26.8985 131.474 26.766 130.955 26.501C130.446 26.2361 130.054 25.8492 129.778 25.3405L125.772 27.28C126.207 28.0219 126.768 28.6684 127.457 29.2195C128.157 29.7812 128.946 30.2157 129.826 30.5231ZM136.868 14.3077C136.868 15.3463 136.741 16.2578 136.487 17.042C136.233 17.8263 135.814 18.4357 135.231 18.8702C134.659 19.3048 133.89 19.522 132.926 19.522C131.993 19.522 131.23 19.2889 130.637 18.8226C130.043 18.3562 129.603 17.7309 129.317 16.9466C129.031 16.1518 128.888 15.2721 128.888 14.3077C128.888 13.3538 129.036 12.4848 129.333 11.7005C129.63 10.9056 130.086 10.275 130.7 9.80869C131.325 9.33177 132.12 9.09331 133.085 9.09331C133.986 9.09331 134.712 9.31057 135.263 9.7451C135.824 10.1796 136.233 10.789 136.487 11.5733C136.741 12.3576 136.868 13.269 136.868 14.3077ZM158.676 22.2405C160.022 22.993 161.574 23.3692 163.334 23.3692C164.987 23.3692 166.508 22.9347 167.896 22.0656C169.295 21.1966 170.318 19.9778 170.964 18.4092L166.64 17.1692C166.322 17.8687 165.861 18.4039 165.257 18.7749C164.653 19.1458 163.927 19.3313 163.079 19.3313C161.733 19.3313 160.71 18.8967 160.011 18.0277C159.507 17.3836 159.187 16.5463 159.052 15.5159H166.831H169.025H171.107C171.288 13.4386 171.076 11.6316 170.471 10.0948C169.867 8.55809 168.935 7.36578 167.674 6.51792C166.412 5.67006 164.881 5.24612 163.079 5.24612C161.383 5.24612 159.884 5.63296 158.58 6.40664C157.277 7.16971 156.254 8.24544 155.512 9.63382C154.77 11.0222 154.399 12.6543 154.399 14.5302C154.399 16.2472 154.775 17.7733 155.528 19.1087C156.291 20.4335 157.34 21.4774 158.676 22.2405ZM166.732 12.3046C166.606 11.3759 166.358 10.6605 165.988 10.1584C165.437 9.38476 164.531 8.99792 163.27 8.99792C161.797 8.99792 160.71 9.44835 160.011 10.3492C159.616 10.8598 159.334 11.5116 159.166 12.3046H166.732ZM176.748 22.2405C178.094 22.993 179.646 23.3692 181.406 23.3692C183.059 23.3692 184.58 22.9347 185.968 22.0656C187.367 21.1966 188.39 19.9778 189.036 18.4092L184.712 17.1692C184.394 17.8687 183.933 18.4039 183.329 18.7749C182.725 19.1458 181.999 19.3313 181.151 19.3313C179.805 19.3313 178.782 18.8967 178.083 18.0277C177.579 17.3836 177.259 16.5463 177.124 15.5159H184.903H187.097H189.179C189.36 13.4386 189.148 11.6316 188.543 10.0948C187.939 8.55809 187.007 7.36578 185.746 6.51792C184.484 5.67006 182.953 5.24612 181.151 5.24612C179.455 5.24612 177.956 5.63296 176.652 6.40664C175.349 7.16971 174.326 8.24544 173.584 9.63382C172.842 11.0222 172.471 12.6543 172.471 14.5302C172.471 16.2472 172.847 17.7733 173.6 19.1087C174.363 20.4335 175.412 21.4774 176.748 22.2405ZM184.804 12.3046C184.678 11.3759 184.43 10.6605 184.06 10.1584C183.509 9.38476 182.603 8.99792 181.342 8.99792C179.869 8.99792 178.782 9.44835 178.083 10.3492C177.688 10.8598 177.406 11.5116 177.238 12.3046H184.804ZM148.188 22.8923H143.832V5.72304H147.648V8.48589C147.79 8.23136 147.949 7.9887 148.125 7.75791C148.496 7.27039 148.951 6.86765 149.492 6.5497C149.905 6.29534 150.356 6.09928 150.843 5.9615C151.331 5.81312 151.834 5.72304 152.353 5.69124C152.873 5.64885 153.392 5.65945 153.911 5.72304V9.76099C153.434 9.61261 152.878 9.56492 152.242 9.61791C151.617 9.66031 151.05 9.80338 150.541 10.0471C150.032 10.2803 149.603 10.593 149.253 10.9851C148.904 11.3666 148.639 11.8224 148.458 12.3523C148.278 12.8716 148.188 13.4598 148.188 14.1169V22.8923ZM73.6102 22.8924V12.7498C73.6102 11.6158 73.34 10.7361 72.7995 10.1108C72.2696 9.47494 71.533 9.15699 70.5897 9.15699C69.9856 9.15699 69.461 9.30006 69.0159 9.58622C68.5708 9.86177 68.221 10.2539 67.9667 10.7626C67.7229 11.2608 67.601 11.8384 67.601 12.4955V22.8924H63.2769V12.7498C63.2769 11.6158 63.0066 10.7361 62.4661 10.1108C61.9362 9.47494 61.1996 9.15699 60.2564 9.15699C59.3555 9.15699 58.6295 9.46964 58.0784 10.0949C57.5379 10.7096 57.2677 11.5098 57.2677 12.4955V22.8924H52.9118V5.72314H56.7272V7.60423C57.2252 6.99078 57.8345 6.48562 58.5554 6.08878C59.5092 5.56946 60.5743 5.3098 61.7507 5.3098C63.0967 5.3098 64.199 5.59596 65.0574 6.16826C65.7745 6.64047 66.3364 7.24256 66.7432 7.97451C67.2888 7.16799 67.9933 6.53411 68.8569 6.07288C69.8002 5.56416 70.8441 5.3098 71.9887 5.3098C73.9494 5.3098 75.4279 5.89271 76.4241 7.05852C77.4309 8.21374 77.9344 9.7293 77.9344 11.6052V22.8924H73.6102ZM37.4609 22.2087C38.7645 22.9824 40.2801 23.3692 42.0076 23.3692C43.7245 23.3692 45.2348 22.9877 46.5384 22.2246C47.8526 21.4509 48.8753 20.3858 49.6066 19.0292C50.3485 17.662 50.7194 16.0882 50.7194 14.3077C50.7194 12.5378 50.3538 10.9745 49.6225 9.61792C48.8912 8.25074 47.8685 7.18031 46.5543 6.40664C45.2507 5.63296 43.7351 5.24612 42.0076 5.24612C40.3119 5.24612 38.8122 5.62766 37.5086 6.39074C36.205 7.15382 35.1823 8.21895 34.4404 9.58613C33.6985 10.9427 33.3276 12.5166 33.3276 14.3077C33.3276 16.0776 33.6879 17.6461 34.4086 19.0133C35.1399 20.3699 36.1573 21.435 37.4609 22.2087ZM45.1076 17.9323C44.4293 18.8649 43.396 19.3313 42.0076 19.3313C40.6616 19.3313 39.6389 18.8808 38.9394 17.98C38.2505 17.0685 37.9061 15.8444 37.9061 14.3077C37.9061 13.3114 38.0491 12.4371 38.3353 11.6846C38.632 10.9321 39.0825 10.3439 39.6866 9.91997C40.2907 9.49604 41.0644 9.28408 42.0076 9.28408C43.3748 9.28408 44.4028 9.7398 45.0917 10.6513C45.7912 11.5627 46.1409 12.7815 46.1409 14.3077C46.1409 15.7808 45.7965 16.989 45.1076 17.9323ZM25.0494 23.3692C23.2689 23.3692 21.7427 22.9718 20.471 22.1769C19.1992 21.382 18.2241 20.301 17.5458 18.9338C16.8675 17.5667 16.5284 16.0246 16.5284 14.3077C16.5284 12.5695 16.8781 11.0169 17.5776 9.64972C18.2877 8.28254 19.2839 7.20681 20.5663 6.42254C21.8487 5.63826 23.3643 5.24612 25.113 5.24612C27.1373 5.24612 28.833 5.76014 30.2002 6.78818C31.578 7.80561 32.4576 9.19929 32.8392 10.9692L28.5151 12.1138C28.2607 11.2236 27.8156 10.5294 27.1797 10.0313C26.5544 9.53314 25.8443 9.28408 25.0494 9.28408C24.138 9.28408 23.3908 9.50664 22.8079 9.95177C22.225 10.3863 21.7957 10.9851 21.5202 11.7482C21.2446 12.5007 21.1068 13.3538 21.1068 14.3077C21.1068 15.802 21.4354 17.0155 22.0925 17.9482C22.7602 18.8702 23.7458 19.3313 25.0494 19.3313C26.0245 19.3313 26.7663 19.1087 27.2751 18.6636C27.7838 18.2184 28.1653 17.5825 28.4197 16.7559L32.8392 17.6779C32.3517 19.5008 31.4296 20.9051 30.073 21.8908C28.7164 22.8764 27.0419 23.3692 25.0494 23.3692Z" fill="#474747"/>
</svg>
