<svg width="175" height="34" viewBox="0 0 175 34" fill="none" xmlns="http://www.w3.org/2000/svg">
<path d="M167.348 21.0269C167.348 21.9266 167.289 22.7392 167.173 23.4648H148.801C148.946 25.3803 149.659 26.9185 150.939 28.0794C152.219 29.2403 153.79 29.8207 155.652 29.8207C158.329 29.8207 160.22 28.7034 161.325 26.4686H166.693C165.966 28.6743 164.642 30.4883 162.722 31.9104C160.831 33.3035 158.474 34 155.652 34C153.354 34 151.288 33.4921 149.456 32.4763C147.652 31.4315 146.226 29.9804 145.179 28.1229C144.161 26.2364 143.652 24.0597 143.652 21.5928C143.652 19.1259 144.146 16.9637 145.135 15.1063C146.154 13.2198 147.565 11.7687 149.368 10.7529C151.201 9.73709 153.296 9.22919 155.652 9.22919C157.922 9.22919 159.943 9.72258 161.718 10.7093C163.493 11.6961 164.875 13.0892 165.864 14.8886C166.853 16.659 167.348 18.7051 167.348 21.0269ZM162.154 19.4597C162.125 17.6312 161.471 16.1656 160.191 15.0627C158.911 13.9599 157.325 13.4084 155.434 13.4084C153.718 13.4084 152.248 13.9599 151.027 15.0627C149.805 16.1366 149.077 17.6022 148.845 19.4597H162.154Z" fill="#474747"/>
<path d="M132.909 34C131.018 34 129.316 33.6662 127.803 32.9987C126.319 32.3022 125.141 31.3735 124.268 30.2125C123.395 29.0226 122.93 27.7021 122.872 26.251H128.021C128.108 27.2668 128.588 28.1229 129.461 28.8195C130.363 29.487 131.483 29.8207 132.821 29.8207C134.218 29.8207 135.294 29.5595 136.051 29.0371C136.836 28.4857 137.229 27.7892 137.229 26.9475C137.229 26.0478 136.792 25.3803 135.92 24.9449C135.076 24.5096 133.723 24.0307 131.861 23.5083C130.058 23.0149 128.588 22.5361 127.454 22.0717C126.319 21.6073 125.33 20.8963 124.486 19.9385C123.672 18.9808 123.264 17.7183 123.264 16.1511C123.264 14.8741 123.643 13.7132 124.399 12.6684C125.155 11.5945 126.232 10.7529 127.628 10.1434C129.054 9.53393 130.683 9.22919 132.516 9.22919C135.251 9.22919 137.447 9.92574 139.105 11.3188C140.793 12.6829 141.695 14.5548 141.811 16.9347H136.836C136.749 15.8609 136.312 15.0047 135.527 14.3662C134.741 13.7277 133.68 13.4084 132.341 13.4084C131.032 13.4084 130.028 13.6551 129.33 14.1485C128.632 14.6419 128.283 15.2949 128.283 16.1076C128.283 16.746 128.516 17.283 128.981 17.7183C129.447 18.1536 130.014 18.5019 130.683 18.7631C131.352 18.9953 132.341 19.3 133.65 19.6773C135.396 20.1417 136.822 20.6206 137.927 21.114C139.062 21.5783 140.036 22.2749 140.851 23.2036C141.665 24.1323 142.087 25.3658 142.116 26.904C142.116 28.268 141.738 29.487 140.982 30.5608C140.225 31.6347 139.149 32.4763 137.753 33.0858C136.385 33.6953 134.771 34 132.909 34Z" fill="#474747"/>
<path d="M95.129 21.5058C95.129 19.0969 95.6235 16.9637 96.6127 15.1063C97.6309 13.2488 98.9983 11.8122 100.715 10.7964C102.46 9.7516 104.38 9.22919 106.475 9.22919C108.366 9.22919 110.01 9.60649 111.406 10.3611C112.832 11.0866 113.966 12.0009 114.81 13.1037V9.621H119.829V33.6082H114.81V30.0384C113.966 31.1703 112.817 32.1135 111.363 32.8681C109.908 33.6227 108.25 34 106.388 34C104.322 34 102.431 33.4776 100.715 32.4328C98.9983 31.3589 97.6309 29.8788 96.6127 27.9923C95.6235 26.0768 95.129 23.9146 95.129 21.5058ZM114.81 21.5928C114.81 19.9385 114.461 18.5019 113.763 17.283C113.094 16.064 112.206 15.1353 111.101 14.4968C109.995 13.8583 108.802 13.5391 107.522 13.5391C106.242 13.5391 105.05 13.8583 103.944 14.4968C102.838 15.1063 101.937 16.0205 101.238 17.2394C100.569 18.4294 100.235 19.8515 100.235 21.5058C100.235 23.16 100.569 24.6112 101.238 25.8592C101.937 27.1071 102.838 28.0649 103.944 28.7324C105.079 29.3709 106.271 29.6901 107.522 29.6901C108.802 29.6901 109.995 29.3709 111.101 28.7324C112.206 28.0939 113.094 27.1652 113.763 25.9462C114.461 24.6982 114.81 23.2471 114.81 21.5928Z" fill="#474747"/>
<path d="M73.0593 13.1908C73.903 12.0299 75.0521 11.0866 76.5068 10.3611C77.9905 9.60649 79.6342 9.22919 81.438 9.22919C83.5617 9.22919 85.4818 9.73709 87.1983 10.7529C88.9147 11.7687 90.2676 13.2198 91.2567 15.1063C92.2458 16.9637 92.7404 19.0969 92.7404 21.5058C92.7404 23.9146 92.2458 26.0768 91.2567 27.9923C90.2676 29.8788 88.9002 31.3589 87.1546 32.4328C85.4382 33.4776 83.5326 34 81.438 34C79.576 34 77.9177 33.6372 76.4631 32.9117C75.0376 32.1861 73.903 31.2574 73.0593 30.1255V33.6082H68.0845V3.13546L73.0593 1.39308V13.1908ZM87.6783 21.5058C87.6783 19.8515 87.3292 18.4294 86.631 17.2394C85.9618 16.0205 85.06 15.1063 83.9254 14.4968C82.8199 13.8583 81.6271 13.5391 80.347 13.5391C79.096 13.5391 77.9032 13.8583 76.7686 14.4968C75.6631 15.1353 74.7612 16.064 74.063 17.283C73.3939 18.5019 73.0593 19.9385 73.0593 21.5928C73.0593 23.2471 73.3939 24.6982 74.063 25.9462C74.7612 27.1652 75.6631 28.0939 76.7686 28.7324C77.9032 29.3709 79.096 29.6901 80.347 29.6901C81.6271 29.6901 82.8199 29.3709 83.9254 28.7324C85.06 28.0649 85.9618 27.1071 86.631 25.8592C87.3292 24.6112 87.6783 23.16 87.6783 21.5058Z" fill="#474747"/>
<path d="M54.0583 9.22919C55.9493 9.22919 57.6367 9.621 59.1204 10.4046C60.6332 11.1882 61.8115 12.3491 62.6552 13.8873C63.4989 15.4255 63.9207 17.283 63.9207 19.4597V33.6082H58.9895V20.1997C58.9895 18.0521 58.4513 16.4123 57.3749 15.2804C56.2984 14.1195 54.8293 13.5391 52.9673 13.5391C51.1054 13.5391 49.6217 14.1195 48.5162 15.2804C47.4398 16.4123 46.9015 18.0521 46.9015 20.1997V33.6082H41.9267V9.621H46.9015V12.3636C47.7161 11.3769 48.7489 10.6078 49.9999 10.0563C51.28 9.50491 52.6328 9.22919 54.0583 9.22919Z" fill="#474747"/>
<path d="M12.8748 21.5058C12.8748 19.0969 13.3694 16.9637 14.3585 15.1063C15.3768 13.2488 16.7441 11.8122 18.4606 10.7964C20.2062 9.7516 22.1263 9.22919 24.2209 9.22919C26.1119 9.22919 27.7557 9.60649 29.1521 10.3611C30.5777 11.0866 31.7123 12.0009 32.5559 13.1037V9.621H37.5744V33.6082H32.5559V30.0384C31.7123 31.1703 30.5631 32.1135 29.1085 32.8681C27.6539 33.6227 25.9956 34 24.1336 34C22.0681 34 20.1771 33.4776 18.4606 32.4328C16.7441 31.3589 15.3768 29.8788 14.3585 27.9923C13.3694 26.0768 12.8748 23.9146 12.8748 21.5058ZM32.5559 21.5928C32.5559 19.9385 32.2068 18.5019 31.5086 17.283C30.8395 16.064 29.9522 15.1353 28.8466 14.4968C27.7411 13.8583 26.5483 13.5391 25.2683 13.5391C23.9882 13.5391 22.7954 13.8583 21.6899 14.4968C20.5844 15.1063 19.6825 16.0205 18.9843 17.2394C18.3151 18.4294 17.9806 19.8515 17.9806 21.5058C17.9806 23.16 18.3151 24.6112 18.9843 25.8592C19.6825 27.1071 20.5844 28.0649 21.6899 28.7324C22.8245 29.3709 24.0173 29.6901 25.2683 29.6901C26.5483 29.6901 27.7411 29.3709 28.8466 28.7324C29.9522 28.0939 30.8395 27.1652 31.5086 25.9462C32.2068 24.6982 32.5559 23.2471 32.5559 21.5928Z" fill="#474747"/>
<path d="M11.5027 13.6697H7.85499V33.6082H2.83653V13.6697H0V9.621H2.83653V7.92317C2.83653 5.16602 3.56384 3.16346 5.01847 1.91549C6.50219 0.638498 8.81505 0 11.957 0V4.13572C10.4442 4.13572 9.38235 4.42595 8.77141 5.0064C8.16047 5.55783 7.85499 6.53009 7.85499 7.92317V9.621H12.3062L11.5027 13.6697Z" fill="#474747"/>
<path d="M167.312 7.48784H169.972V8.30889H169.169V11.0123H168.115L168.125 8.30889H167.312V7.48784ZM175 7.48784V11.0123H174.026L174.006 8.79951L173.093 11.0123H172.38L171.467 8.71941V11.0123H170.524V7.48784H171.919L172.772 9.75073L173.695 7.48784H175Z" fill="#474747"/>
</svg>
