<svg width="136" height="37" viewBox="0 0 136 37" fill="none" xmlns="http://www.w3.org/2000/svg">
<path d="M4.59746 5.45827V9.84705H11.5458V13.6359H4.59746V21.0016H0V1.66943H12.8762V5.45827H4.59746Z" fill="#474747"/>
<path d="M4.59746 5.45827V9.84705H11.5458V13.6359H4.59746V21.0016H0V1.66943H12.8762V5.45827H4.59746Z" fill="#474747"/>
<path d="M28.0028 6.76581V13.8837V21.0016H23.7444L23.6662 19.5115C22.6228 20.6886 21.1327 21.2625 19.6165 21.2625C16.457 21.2625 14.3408 19.042 14.3408 15.6738V6.76581H18.7818V15.0184C18.7818 16.4824 19.7208 17.4476 21.1849 17.4476C22.6489 17.4476 23.5618 16.4824 23.5618 15.0184V6.76581H28.0028Z" fill="#474747"/>
<path d="M28.0028 6.76581V13.8837V21.0016H23.7444L23.6662 19.5115C22.6228 20.6886 21.1327 21.2625 19.6165 21.2625C16.457 21.2625 14.3408 19.042 14.3408 15.6738V6.76581H18.7818V15.0184C18.7818 16.4824 19.7208 17.4476 21.1849 17.4476C22.6489 17.4476 23.5618 16.4824 23.5618 15.0184V6.76581H28.0028Z" fill="#474747"/>
<path d="M38.9452 17.0039V20.5548C37.8235 21.0504 36.4638 21.259 35.2346 21.259C32.4663 21.259 30.585 19.3516 30.585 16.5051V2.58551H35.0259V6.76562H38.7365V10.3947H35.0259V15.566C35.0259 16.6877 35.7041 17.4474 36.6725 17.4474C37.429 17.4474 38.1887 17.317 38.9452 17.0039Z" fill="#474747"/>
<path d="M38.9452 17.0039V20.5548C37.8235 21.0504 36.4638 21.259 35.2346 21.259C32.4663 21.259 30.585 19.3516 30.585 16.5051V2.58551H35.0259V6.76562H38.7365V10.3947H35.0259V15.566C35.0259 16.6877 35.7041 17.4474 36.6725 17.4474C37.429 17.4474 38.1887 17.317 38.9452 17.0039Z" fill="#474747"/>
<path d="M54.2757 6.76581V21.0016H50.0174L49.9391 19.5115C48.8957 20.6886 47.4056 21.2625 45.8894 21.2625C42.7299 21.2625 40.6138 19.042 40.6138 15.6738V6.76581H45.0547V15.0184C45.0547 16.4824 45.9938 17.4476 47.4578 17.4476C48.9218 17.4476 49.8348 16.4824 49.8348 15.0184V6.76581H54.2757Z" fill="#474747"/>
<path d="M54.2757 6.76581V21.0016H50.0174L49.9391 19.5115C48.8957 20.6886 47.4056 21.2625 45.8894 21.2625C42.7299 21.2625 40.6138 19.042 40.6138 15.6738V6.76581H45.0547V15.0184C45.0547 16.4824 45.9938 17.4476 47.4578 17.4476C48.9218 17.4476 49.8348 16.4824 49.8348 15.0184V6.76581H54.2757Z" fill="#474747"/>
<path d="M66.3444 6.50177L66.0574 10.5775C63.3413 10.5775 61.4339 11.8296 61.4339 13.6849V20.9985H56.9929V6.76262H61.2774L61.3556 8.48748C62.4773 7.23541 64.2282 6.50177 66.3444 6.50177Z" fill="#474747"/>
<path d="M66.3444 6.50177L66.0574 10.5775C63.3413 10.5775 61.4339 11.8296 61.4339 13.6849V20.9985H56.9929V6.76262H61.2774L61.3556 8.48748C62.4773 7.23541 64.2282 6.50177 66.3444 6.50177Z" fill="#474747"/>
<path d="M80.9187 15.4358H71.1499C71.4107 16.8998 72.1933 17.7867 73.8921 17.7867C75.0952 17.7867 76.0865 17.2911 76.7647 16.4825L80.2111 18.1552C78.9819 20.0105 76.7125 21.2625 73.941 21.2625C69.4478 21.2625 66.4448 18.3899 66.4448 14.0272C66.4448 9.66454 69.3435 6.505 73.7323 6.505C78.1211 6.505 81.0198 9.35152 81.0198 13.6621C81.0198 14.262 80.9676 14.9435 80.9154 15.4391L80.9187 15.4358ZM71.176 12.4589H76.3734C76.0865 10.8384 75.2257 9.97756 73.7356 9.97756C72.2455 9.97756 71.4629 10.8644 71.176 12.4589Z" fill="#474747"/>
<path d="M80.9187 15.4358H71.1499C71.4107 16.8998 72.1933 17.7867 73.8921 17.7867C75.0952 17.7867 76.0865 17.2911 76.7647 16.4825L80.2111 18.1552C78.9819 20.0105 76.7125 21.2625 73.941 21.2625C69.4478 21.2625 66.4448 18.3899 66.4448 14.0272C66.4448 9.66454 69.3435 6.505 73.7323 6.505C78.1211 6.505 81.0198 9.35152 81.0198 13.6621C81.0198 14.262 80.9676 14.9435 80.9154 15.4391L80.9187 15.4358ZM71.176 12.4589H76.3734C76.0865 10.8384 75.2257 9.97756 73.7356 9.97756C72.2455 9.97756 71.4629 10.8644 71.176 12.4589Z" fill="#474747"/>
<path d="M86.9769 5.45827V9.84705H93.9252V13.6359H86.9769V21.0016H82.3794V1.66943H95.2556V5.45827H86.9769Z" fill="#474747"/>
<path d="M86.9769 5.45827V9.84705H93.9252V13.6359H86.9769V21.0016H82.3794V1.66943H95.2556V5.45827H86.9769Z" fill="#474747"/>
<path d="M96.876 2.55958C96.876 1.06948 97.9716 0 99.4617 0C100.952 0 102.021 1.06948 102.021 2.55958C102.021 4.04968 100.952 5.11916 99.4617 5.11916C97.9716 5.11916 96.876 4.04968 96.876 2.55958ZM97.2151 6.76577H101.656V21.0016H97.2151V6.76577Z" fill="#474747"/>
<path d="M96.876 2.55958C96.876 1.06948 97.9716 0 99.4617 0C100.952 0 102.021 1.06948 102.021 2.55958C102.021 4.04968 100.952 5.11916 99.4617 5.11916C97.9716 5.11916 96.876 4.04968 96.876 2.55958ZM97.2151 6.76577H101.656V21.0016H97.2151V6.76577Z" fill="#474747"/>
<path d="M113.746 6.50177L113.46 10.5775C110.743 10.5775 108.836 11.8296 108.836 13.6849V20.9985H104.395V6.76262H108.679L108.758 8.48748C109.879 7.23541 111.63 6.50177 113.746 6.50177Z" fill="#474747"/>
<path d="M113.746 6.50177L113.46 10.5775C110.743 10.5775 108.836 11.8296 108.836 13.6849V20.9985H104.395V6.76262H108.679L108.758 8.48748C109.879 7.23541 111.63 6.50177 113.746 6.50177Z" fill="#474747"/>
<path d="M114.321 19.4855L115.993 16.7955C117.405 17.552 118.71 17.8128 120.069 17.8128C121.008 17.8128 121.69 17.4998 121.69 16.8998C121.69 16.2999 120.829 15.9608 119.548 15.6217L118.53 15.3608C116.049 14.7609 114.35 13.8186 114.35 11.4937C114.35 8.49072 116.701 6.505 120.252 6.505C122.525 6.505 124.458 7.00062 125.893 7.99511L124.037 10.8677C122.916 10.2678 121.765 9.98082 120.539 9.98082C119.548 9.98082 118.866 10.2678 118.866 10.7895C118.866 11.3633 119.649 11.6503 120.721 11.9372L121.713 12.198C124.298 12.8502 126.206 14.0012 126.206 16.5868C126.206 19.4073 123.698 21.2625 119.988 21.2625C117.741 21.2625 115.755 20.6887 114.321 19.4855Z" fill="#474747"/>
<path d="M114.321 19.4855L115.993 16.7955C117.405 17.552 118.71 17.8128 120.069 17.8128C121.008 17.8128 121.69 17.4998 121.69 16.8998C121.69 16.2999 120.829 15.9608 119.548 15.6217L118.53 15.3608C116.049 14.7609 114.35 13.8186 114.35 11.4937C114.35 8.49072 116.701 6.505 120.252 6.505C122.525 6.505 124.458 7.00062 125.893 7.99511L124.037 10.8677C122.916 10.2678 121.765 9.98082 120.539 9.98082C119.548 9.98082 118.866 10.2678 118.866 10.7895C118.866 11.3633 119.649 11.6503 120.721 11.9372L121.713 12.198C124.298 12.8502 126.206 14.0012 126.206 16.5868C126.206 19.4073 123.698 21.2625 119.988 21.2625C117.741 21.2625 115.755 20.6887 114.321 19.4855Z" fill="#474747"/>
<path d="M136 17.0039V20.5548C134.878 21.0504 133.519 21.259 132.289 21.259C129.521 21.259 127.64 19.3516 127.64 16.5051V2.58551H132.081V6.76562H135.791V10.3947H132.081V15.566C132.081 16.6877 132.759 17.4474 133.727 17.4474C134.484 17.4474 135.243 17.317 136 17.0039Z" fill="#474747"/>
<path d="M136 17.0039V20.5548C134.878 21.0504 133.519 21.259 132.289 21.259C129.521 21.259 127.64 19.3516 127.64 16.5051V2.58551H132.081V6.76562H135.791V10.3947H132.081V15.566C132.081 16.6877 132.759 17.4474 133.727 17.4474C134.484 17.4474 135.243 17.317 136 17.0039Z" fill="#474747"/>
<path d="M7.96573 34.4326H2.76179L1.72818 36.865H0.117432L4.6562 26.4017H6.05501L10.5807 36.865H8.98304L7.96573 34.4326ZM7.44403 33.1903L5.36376 28.257L3.28675 33.1903H7.44403Z" fill="#474747"/>
<path d="M7.96573 34.4326H2.76179L1.72818 36.865H0.117432L4.6562 26.4017H6.05501L10.5807 36.865H8.98304L7.96573 34.4326ZM7.44403 33.1903L5.36376 28.257L3.28675 33.1903H7.44403Z" fill="#474747"/>
<path d="M19.2507 25.8373V36.868H17.8519L17.8225 35.4822C17.2845 36.4148 16.365 37.0082 15.038 37.0082C12.961 37.0082 11.4187 35.4529 11.4187 33.1183C11.4187 30.7837 12.961 29.173 15.038 29.173C16.3683 29.173 17.2715 29.7533 17.8095 30.6859V25.8373H19.2507ZM17.8062 33.0889C17.8062 31.4912 16.815 30.4152 15.3608 30.4152C13.9065 30.4152 12.9153 31.4912 12.9153 33.102C12.9153 34.7127 13.8902 35.7594 15.3608 35.7594C16.8313 35.7594 17.8062 34.6997 17.8062 33.0857V33.0889Z" fill="#474747"/>
<path d="M19.2507 25.8373V36.868H17.8519L17.8225 35.4822C17.2845 36.4148 16.365 37.0082 15.038 37.0082C12.961 37.0082 11.4187 35.4529 11.4187 33.1183C11.4187 30.7837 12.961 29.173 15.038 29.173C16.3683 29.173 17.2715 29.7533 17.8095 30.6859V25.8373H19.2507ZM17.8062 33.0889C17.8062 31.4912 16.815 30.4152 15.3608 30.4152C13.9065 30.4152 12.9153 31.4912 12.9153 33.102C12.9153 34.7127 13.8902 35.7594 15.3608 35.7594C16.8313 35.7594 17.8062 34.6997 17.8062 33.0857V33.0889Z" fill="#474747"/>
<path d="M20.7183 29.3133H22.3029L24.7223 35.2085L27.1547 29.3133H28.7231L25.4559 36.8649H23.9984L20.7183 29.3133Z" fill="#474747"/>
<path d="M20.7183 29.3133H22.3029L24.7223 35.2085L27.1547 29.3133H28.7231L25.4559 36.8649H23.9984L20.7183 29.3133Z" fill="#474747"/>
<path d="M30.0493 26.8416C30.0493 26.3199 30.4308 25.9352 30.9558 25.9352C31.4807 25.9352 31.8459 26.3167 31.8459 26.8416C31.8459 27.3666 31.4644 27.7481 30.9558 27.7481C30.4471 27.7481 30.0493 27.3666 30.0493 26.8416ZM30.2352 29.3132H31.6764V36.8648H30.2352V29.3132Z" fill="#474747"/>
<path d="M30.0493 26.8416C30.0493 26.3199 30.4308 25.9352 30.9558 25.9352C31.4807 25.9352 31.8459 26.3167 31.8459 26.8416C31.8459 27.3666 31.4644 27.7481 30.9558 27.7481C30.4471 27.7481 30.0493 27.3666 30.0493 26.8416ZM30.2352 29.3132H31.6764V36.8648H30.2352V29.3132Z" fill="#474747"/>
<path d="M33.7116 36.1735L34.2757 35.2833C34.9539 35.7203 35.6908 35.8768 36.4538 35.8768C37.3439 35.8768 37.9374 35.4659 37.9374 34.8431C37.9374 34.2204 37.3309 33.9237 36.4962 33.6824L35.7756 33.4835C34.5463 33.1444 33.6953 32.6781 33.6953 31.5043C33.6953 30.1055 34.8267 29.1697 36.5092 29.1697C37.5852 29.1697 38.4591 29.3947 39.209 29.8903L38.5862 30.8522C37.9635 30.4707 37.3146 30.3142 36.607 30.3142C35.7593 30.3142 35.1789 30.6956 35.1789 31.2891C35.1789 31.8825 35.7169 32.1238 36.4505 32.3357L37.1711 32.5346C38.3873 32.8607 39.4209 33.4541 39.4209 34.7258C39.4209 36.0985 38.2471 37.0017 36.4375 37.0017C35.3191 37.0017 34.3442 36.718 33.7084 36.167L33.7116 36.1735Z" fill="#474747"/>
<path d="M33.7116 36.1735L34.2757 35.2833C34.9539 35.7203 35.6908 35.8768 36.4538 35.8768C37.3439 35.8768 37.9374 35.4659 37.9374 34.8431C37.9374 34.2204 37.3309 33.9237 36.4962 33.6824L35.7756 33.4835C34.5463 33.1444 33.6953 32.6781 33.6953 31.5043C33.6953 30.1055 34.8267 29.1697 36.5092 29.1697C37.5852 29.1697 38.4591 29.3947 39.209 29.8903L38.5862 30.8522C37.9635 30.4707 37.3146 30.3142 36.607 30.3142C35.7593 30.3142 35.1789 30.6956 35.1789 31.2891C35.1789 31.8825 35.7169 32.1238 36.4505 32.3357L37.1711 32.5346C38.3873 32.8607 39.4209 33.4541 39.4209 34.7258C39.4209 36.0985 38.2471 37.0017 36.4375 37.0017C35.3191 37.0017 34.3442 36.718 33.7084 36.167L33.7116 36.1735Z" fill="#474747"/>
<path d="M40.9365 33.0892C40.9365 30.7415 42.5212 29.1732 44.8819 29.1732C47.2426 29.1732 48.8142 30.7415 48.8142 33.0892C48.8142 35.4368 47.2295 37.0052 44.8819 37.0052C42.5342 37.0052 40.9365 35.4368 40.9365 33.0892ZM47.3143 33.0892C47.3143 31.4915 46.3394 30.4154 44.8819 30.4154C43.4244 30.4154 42.4364 31.4915 42.4364 33.0892C42.4364 34.6869 43.4113 35.7629 44.8819 35.7629C46.3524 35.7629 47.3143 34.6869 47.3143 33.0892Z" fill="#474747"/>
<path d="M40.9365 33.0892C40.9365 30.7415 42.5212 29.1732 44.8819 29.1732C47.2426 29.1732 48.8142 30.7415 48.8142 33.0892C48.8142 35.4368 47.2295 37.0052 44.8819 37.0052C42.5342 37.0052 40.9365 35.4368 40.9365 33.0892ZM47.3143 33.0892C47.3143 31.4915 46.3394 30.4154 44.8819 30.4154C43.4244 30.4154 42.4364 31.4915 42.4364 33.0892C42.4364 34.6869 43.4113 35.7629 44.8819 35.7629C46.3524 35.7629 47.3143 34.6869 47.3143 33.0892Z" fill="#474747"/>
<path d="M55.0748 29.1732L54.977 30.5035C53.2652 30.5035 52.2185 31.3512 52.2185 32.6392V36.8682H50.7773V29.3166H52.1631L52.1924 30.4481C52.7565 29.6133 53.7608 29.1764 55.0781 29.1764L55.0748 29.1732Z" fill="#474747"/>
<path d="M55.0748 29.1732L54.977 30.5035C53.2652 30.5035 52.2185 31.3512 52.2185 32.6392V36.8682H50.7773V29.3166H52.1631L52.1924 30.4481C52.7565 29.6133 53.7608 29.1764 55.0781 29.1764L55.0748 29.1732Z" fill="#474747"/>
<path d="M56.0634 36.1735L56.6275 35.2833C57.3057 35.7203 58.0426 35.8768 58.8056 35.8768C59.6958 35.8768 60.2892 35.4659 60.2892 34.8431C60.2892 34.2204 59.6827 33.9237 58.848 33.6824L58.1274 33.4835C56.8981 33.1444 56.0471 32.6781 56.0471 31.5043C56.0471 30.1055 57.1786 29.1697 58.861 29.1697C59.937 29.1697 60.8109 29.3947 61.5608 29.8903L60.938 30.8522C60.3153 30.4707 59.6664 30.3142 58.9589 30.3142C58.1111 30.3142 57.5307 30.6956 57.5307 31.2891C57.5307 31.8825 58.0687 32.1238 58.8023 32.3357L59.5229 32.5346C60.7391 32.8607 61.7728 33.4541 61.7728 34.7258C61.7728 36.0985 60.5989 37.0017 58.7893 37.0017C57.6709 37.0017 56.696 36.718 56.0602 36.167L56.0634 36.1735Z" fill="#474747"/>
<path d="M56.0634 36.1735L56.6275 35.2833C57.3057 35.7203 58.0426 35.8768 58.8056 35.8768C59.6958 35.8768 60.2892 35.4659 60.2892 34.8431C60.2892 34.2204 59.6827 33.9237 58.848 33.6824L58.1274 33.4835C56.8981 33.1444 56.0471 32.6781 56.0471 31.5043C56.0471 30.1055 57.1786 29.1697 58.861 29.1697C59.937 29.1697 60.8109 29.3947 61.5608 29.8903L60.938 30.8522C60.3153 30.4707 59.6664 30.3142 58.9589 30.3142C58.1111 30.3142 57.5307 30.6956 57.5307 31.2891C57.5307 31.8825 58.0687 32.1238 58.8023 32.3357L59.5229 32.5346C60.7391 32.8607 61.7728 33.4541 61.7728 34.7258C61.7728 36.0985 60.5989 37.0017 58.7893 37.0017C57.6709 37.0017 56.696 36.718 56.0602 36.167L56.0634 36.1735Z" fill="#474747"/>
</svg>
