<svg width="583" height="120" viewBox="0 0 583 120" fill="none" xmlns="http://www.w3.org/2000/svg">
<g clip-path="url(#clip0_506_80)">
<path d="M31.2584 107.709L31.6116 107.362C40.4417 86.9289 58.985 55.4129 82.4731 20.6067C89.1843 10.7362 93.5991 4.15596 93.5991 3.80965C93.5991 2.94382 77.1749 4.15596 67.6388 5.71446C64.4596 6.23396 63.7531 6.23396 62.8704 5.5413C61.4573 4.32913 62.8704 3.29015 66.7554 2.59747C77.3517 0.865826 91.6563 0 108.787 0C125.741 0 135.101 0.519499 136.337 1.55849C137.75 2.77064 136.867 4.32913 135.101 3.98281C132.982 3.4633 102.253 2.94382 100.31 3.29015C99.074 3.4633 98.0145 4.50229 96.2485 7.27298C95.0122 9.35096 90.7736 15.7581 86.8885 21.6457C68.6983 49.0058 52.6273 74.9805 44.3269 90.5652C39.7353 99.2235 33.5542 112.038 33.5542 112.731C33.5542 112.904 39.3821 113.077 46.6228 113.077C57.3956 113.077 59.868 113.25 61.1043 113.943C63.7531 115.328 62.5168 117.579 59.6914 116.367C58.8084 116.021 53.8635 115.848 46.093 115.848C34.6138 116.021 33.7308 116.021 32.8478 116.886C31.7882 118.099 30.0221 118.272 28.9625 117.233C28.2561 116.54 27.1965 116.54 22.6048 116.886C16.6004 117.233 7.59365 117.926 4.59139 118.272C3.53177 118.445 2.29555 118.272 1.58914 117.925C-0.000287632 117.06 0.706124 115.848 3.00197 115.501C4.768 115.155 21.5452 113.77 26.4901 113.423L28.7859 113.25L31.2584 107.709ZM122.826 69.6122L123.355 69.7854C128.3 67.0147 130.243 66.6684 129.89 68.7466C129.713 69.266 127.947 70.4785 125.475 71.8635C121.942 73.9417 118.41 75.3267 115.408 76.193C108.521 78.2706 102.869 78.0974 99.5142 75.8461L97.7481 74.6342L93.5095 78.9631C89.2709 83.1194 85.0322 86.0632 83.2668 86.2364C80.9704 86.4095 79.5579 84.5045 79.2043 83.1194C79.0281 82.2538 79.2043 80.8681 79.3811 78.2706C79.9109 71.171 81.5007 65.9759 83.443 65.8028C85.5626 65.6296 85.7388 67.1884 84.3263 72.7292C82.9132 77.9243 82.5602 82.7732 83.6198 82.7732C84.6793 82.7732 91.3905 76.3661 95.8053 70.9979C99.3374 66.6684 100.574 65.4565 101.633 65.4565C103.752 65.4565 104.106 66.4953 102.516 68.7466C99.6903 72.9023 101.28 74.8074 107.461 74.4611C111.7 74.288 116.291 73.2492 122.826 69.6122ZM164.512 69.4391L164.159 69.266C167.515 67.0147 168.397 67.1884 168.397 69.0928C168.397 69.4391 167.691 70.3054 166.454 71.5173C162.922 74.9805 156.212 80.0025 151.973 82.4269C144.203 86.7558 139.788 87.2751 136.256 84.5045C134.313 82.9463 134.136 82.4269 134.136 79.8293V76.8855L129.898 80.0025C121.774 86.0632 115.946 88.1414 112.768 86.2364C108.352 83.6388 114.357 73.0754 123.01 68.2272C125.483 66.8415 127.779 66.149 129.721 66.149C132.194 66.149 134.136 67.1884 135.196 69.266L136.079 70.9979L137.845 69.6122C139.788 68.0541 140.494 67.8809 141.554 68.9197C142.26 69.6122 142.083 70.3054 140.494 73.0754C138.198 77.2318 137.492 80.3487 138.551 81.9069C139.258 82.7732 139.788 82.9463 141.907 82.7732C145.969 82.4269 150.914 79.8293 159.037 73.4223C161.333 71.6904 163.099 70.3054 164.512 69.4391ZM128.309 76.7124L128.662 76.8855C132.723 73.9417 132.9 73.7686 132.37 72.0367C132.017 70.9979 131.487 69.9585 131.134 69.7854C130.957 69.6122 130.604 69.4391 130.251 69.4391C126.366 69.266 116.653 77.4049 115.417 82.4269C114.887 84.6776 115.946 84.5045 120.538 81.9069C122.481 80.695 126.013 78.4437 128.309 76.7124ZM220.448 68.4003L220.978 67.7078C221.154 68.2272 220.095 69.4391 218.152 70.9979C213.207 75.1536 203.494 81.5606 197.136 84.1582C190.779 86.9289 186.54 86.5826 184.421 83.2925C183.185 81.3875 183.538 79.3099 185.833 73.4223C186.717 71.171 187.247 69.266 187.07 69.0928C186.187 68.4003 177.534 73.4223 172.764 77.4049C167.996 81.3875 161.462 85.717 160.225 85.717C159.519 85.717 158.459 85.3707 157.93 84.8507C157.223 84.3313 157.046 83.4657 157.223 82.2538C157.93 78.4437 164.817 67.1884 167.29 65.9759C167.996 65.6296 168.526 65.6296 169.232 66.3222C170.292 67.1884 170.292 67.3615 168.702 69.4391C166.406 72.5561 162.168 79.4831 161.638 81.0412C161.285 81.9069 163.228 80.695 168.172 76.8855C179.829 68.0541 186.364 65.1103 189.366 67.3615C191.132 68.5735 190.955 70.9979 189.013 75.673C187.247 79.8293 186.894 83.1194 188.129 83.4657C191.308 84.3313 200.845 79.4831 213.207 70.8248C218.152 67.3615 219.741 66.8416 220.448 68.4003ZM409.756 69.4391L409.402 69.266C412.758 67.0147 413.641 67.1884 413.641 69.0928C413.641 69.4391 412.934 70.3054 411.698 71.5173C408.166 74.9805 401.455 80.0025 397.217 82.4269C389.446 86.7558 385.031 87.2751 381.499 84.5045C379.557 82.9463 379.38 82.4269 379.38 79.8293V76.8855L375.141 80.0025C367.018 86.0632 361.19 88.1414 358.011 86.2364C353.596 83.6388 359.6 73.0754 368.254 68.2272C370.726 66.8415 373.022 66.149 374.965 66.149C377.437 66.149 379.38 67.1884 380.439 69.266L381.323 70.9979L383.089 69.6122C385.031 68.0541 385.738 67.8809 386.797 68.9197C387.504 69.6122 387.327 70.3054 385.738 73.0754C383.442 77.2318 382.735 80.3487 383.795 81.9069C384.501 82.7732 385.031 82.9463 387.151 82.7732C391.212 82.4269 396.157 79.8293 404.281 73.4223C406.577 71.6904 408.343 70.3054 409.756 69.4391ZM373.552 76.7124L373.905 76.8855C377.967 73.9417 378.144 73.7686 377.614 72.0367C377.261 70.9979 376.731 69.9585 376.378 69.7854C376.201 69.6122 375.848 69.4391 375.495 69.4391C371.609 69.266 361.896 77.4049 360.66 82.4269C360.13 84.6776 361.19 84.5045 365.781 81.9069C367.724 80.695 371.256 78.4437 373.552 76.7124ZM440.186 68.7466L440.009 68.9197C444.954 67.0147 446.367 67.0147 446.367 68.7466C446.367 69.6122 445.308 70.3054 441.599 71.6904C438.95 72.7292 432.945 74.8074 427.294 76.8855L417.228 80.8681L416.875 83.6388C416.344 87.4483 413.696 90.7384 410.163 92.124C406.984 93.3359 403.453 93.509 401.687 92.4703C400.097 91.6046 400.097 88.6608 401.687 86.9289C402.923 85.5438 407.691 82.2538 410.516 80.695L411.93 80.0025L410.87 75.4999C409.811 71.5173 409.811 70.8248 410.693 68.9197C411.753 66.6684 413.519 65.2834 415.109 65.2834C415.462 65.2834 415.815 65.2834 416.168 65.4565C417.934 66.149 417.934 67.1884 416.344 68.0541C414.402 69.0928 413.872 71.171 414.755 74.4611C415.638 77.7512 415.991 78.2706 417.228 77.4049C417.757 77.0587 422.172 75.3267 427.117 73.4223C432.062 71.5173 437.537 69.7854 440.186 68.7466ZM408.574 88.6608L408.397 88.4877C411.046 86.7558 413.166 83.2925 411.577 83.2925C410.87 83.2925 404.689 87.7945 403.983 88.8339C403.453 89.6996 403.629 89.8727 405.042 89.8727C405.925 89.8727 407.515 89.3533 408.574 88.6608ZM496.853 68.4003L497.029 68.2272C497.206 68.5735 496.323 69.6122 494.91 70.9979C490.318 75.1536 479.899 82.08 475.307 83.6388C470.539 85.1976 465.417 84.1582 464.181 81.3875C463.828 80.5219 463.475 77.7512 463.475 75.3267C463.475 72.9023 463.298 70.8248 462.945 70.8248C461.532 70.8248 454.291 75.3267 447.403 80.5219C443.165 83.8119 439.28 86.4095 438.75 86.4095C438.22 86.4095 437.338 86.0632 436.984 85.717C435.924 84.6776 436.278 83.1194 439.104 76.8855C445.461 63.2052 469.479 29.2649 473.717 28.0528C475.307 27.5333 476.367 27.8796 476.013 29.4381C476.013 29.7844 474.247 32.3819 471.245 36.1915C464.887 44.3303 458 54.0276 452.702 62.1664C448.464 68.5735 442.812 78.6168 443.165 78.9631C443.342 79.1368 445.991 77.4049 448.993 75.1536C454.644 70.8248 461.532 67.1884 463.828 67.1884C464.534 67.1884 465.594 67.5347 466.3 67.8809C467.36 68.5735 467.537 69.4391 467.89 74.8074L468.066 78.4437C468.243 81.0412 468.773 81.0413 470.539 81.2144C472.305 81.3875 473.717 80.8681 477.426 78.9631C481.841 76.7124 491.908 69.6122 493.497 68.7466C495.263 67.7078 496.322 67.3615 496.853 68.4003ZM535.539 67.8809L535.716 68.2272C536.422 69.0928 535.009 70.8248 530.064 73.5954C520.881 78.7899 513.817 80.5219 506.576 80.5219C503.574 80.5219 502.868 80.695 502.514 81.3875C501.985 82.7732 497.216 86.5826 494.92 87.2751C491.742 88.3145 489.799 88.1414 487.503 86.5826C483.441 83.6388 484.501 77.578 490.153 70.8248C491.565 69.0928 493.154 67.5347 493.684 67.3615C494.214 67.1884 495.274 66.6684 496.157 66.149C497.216 65.4565 498.629 65.1102 500.042 65.1102C501.455 65.1102 502.868 65.4565 503.751 66.149C506.576 68.7466 506.93 70.8248 505.34 74.8074L504.457 77.2318H507.283C513.111 77.2318 520.528 75.1536 528.298 70.4785C532.89 67.7078 534.656 66.8415 535.539 67.8809ZM497.746 81.5606L498.982 80.1756L497.393 79.3099C496.157 78.4437 494.391 77.4049 493.684 76.3661L492.272 74.4611L490.858 76.8855C488.916 80.1756 488.386 82.4269 489.269 83.9851C490.153 85.5438 491.388 85.5438 494.214 84.1582C495.45 83.6388 497.04 82.4269 497.746 81.5606ZM501.808 73.9417H501.984C502.691 70.6516 502.161 68.9197 500.395 68.7466C500.218 68.7466 500.042 68.7466 499.866 68.7466C498.099 68.9197 496.157 71.171 496.157 73.0754C496.157 74.288 496.686 74.9805 498.099 76.0193C499.159 76.7124 500.218 77.0587 500.572 76.8855C500.925 76.7124 501.455 75.3267 501.808 73.9417ZM573.646 69.6122L574.176 69.7854C579.121 67.0147 581.064 66.6684 580.71 68.7466C580.534 69.266 578.768 70.4785 576.296 71.8635C572.764 73.9417 569.231 75.3267 566.229 76.193C559.342 78.2706 553.691 78.0974 550.335 75.8461L548.569 74.6342L544.331 78.9631C540.092 83.1194 535.853 86.0632 534.087 86.2364C531.791 86.4095 530.379 84.5045 530.025 83.1194C529.849 82.2538 530.025 80.8681 530.202 78.2706C530.732 71.171 532.321 65.9759 534.264 65.8028C536.383 65.6296 536.56 67.1884 535.147 72.7292C533.734 77.9243 533.381 82.7732 534.441 82.7732C535.5 82.7732 542.211 76.3661 546.626 70.9979C550.159 66.6684 551.395 65.4565 552.454 65.4565C554.573 65.4565 554.927 66.4953 553.337 68.7466C550.511 72.9023 552.101 74.8074 558.282 74.4611C562.52 74.288 567.112 73.2492 573.646 69.6122Z" fill="white"/>
<path d="M285.558 110.133C265.072 111.864 255.535 112.904 238.935 115.674C223.747 118.099 222.687 118.272 222.157 117.752L222.687 117.233C221.627 116.367 222.511 114.635 224.807 113.25C226.219 112.384 234.343 107.189 242.997 101.648C251.65 96.1065 266.661 86.5826 276.198 80.5218C285.734 74.461 293.505 69.4391 293.328 69.2659L298.803 65.8027C301.276 64.9371 334.3 42.2522 353.903 27.8795C366.795 18.5286 381.63 6.75336 381.63 5.88755C381.63 4.84857 377.921 4.50223 363.263 4.50223C347.192 4.50223 337.832 5.36807 317.523 8.31189C299.51 10.9093 282.909 14.8922 271.783 19.2213C265.778 21.4724 264.719 21.6456 264.719 19.914C264.719 18.0091 271.253 15.4116 286.088 11.4288C297.92 8.31189 305.161 6.92655 319.465 5.02172C341.188 2.07791 350.548 1.38526 366.265 1.55842C374.743 1.73159 381.1 2.07791 382.16 2.42426C383.042 2.77058 384.279 3.6364 384.808 4.32906C385.868 5.7144 385.868 5.88755 384.456 8.1387C381.1 13.1605 348.958 37.2305 314.698 60.2615C310.459 63.032 306.927 65.4565 306.927 65.4565L304.64 67.0146L303.757 67.5346L301.276 68.9197L290.503 75.8461C278.67 83.4656 268.074 90.2189 256.772 97.3191C247.588 103.033 231.871 113.077 232.047 113.25C232.047 113.25 235.933 112.731 240.7 111.864C254.829 109.614 269.134 108.055 296.331 105.977C304.277 105.457 313.637 105.284 327.236 105.284C352.137 105.284 359.201 105.977 361.144 108.574C362.027 109.787 360.79 111.172 358.671 111.345C357.435 111.518 356.905 111.345 356.729 110.479C356.552 109.96 355.669 109.267 354.786 109.094C353.903 108.921 341.717 108.747 327.766 108.747C304.984 108.747 300.922 108.921 285.558 110.133Z" fill="white"/>
</g>
<defs>
<clipPath id="clip0_506_80">
<rect width="582.789" height="119.484" fill="white"/>
</clipPath>
</defs>
</svg>
